<svg width="2412" height="989" fill="none" xmlns="http://www.w3.org/2000/svg"><g clip-path="url(#clip0_110_154)"><path fill="#fff" d="M0 0h2412v989H0z"/><path d="M1149.64 59.196c-95.56-93.323-210.138-170.171-341.047-224.042C257.637-391.576-374.132-125.495-602.499 429.44c-228.367 554.936 33.134 1188.61 584.065 1415.33 550.931 226.72 1097.324-33.12 1378.904-523.27l48.17-73.42s146.2-221.36 292.98-247.47c133.67-23.795 410.57 163.39 410.57 163.39l29.13 20.19c40.93 25.92 84.63 48.64 130.96 67.71 432.93 178.16 929.32-30.92 1108.77-466.987 179.45-436.066-26.02-933.947-458.94-1112.103-362.59-149.213-769.72-26.782-997.85 273.132l-24.17 33.027s-194.38 280.55-340.87 282.771c-183.09 2.78-401.11-193.9-401.11-193.9l-8.48-8.619.01-.025z" fill="url(#paint0_linear_110_154)"/><path d="M2421.35 1280.05c-208.93-221.52-548.09-345.965-877.49-321.98-247.22 18.006-485.36 113.52-732.975 100.08-385.34-20.92-793.51-136.546-1175.572-184.685" stroke="#64C5FC" stroke-opacity=".28" stroke-linecap="round" stroke-linejoin="round"/><path d="M2473.14 1260.25c-218.44-225.36-572.87-347.523-913.68-317.063-28.02 2.486-55.91 5.94-83.68 10.136-185.69 28.603-354.02 99.417-533.433 108.217-43.383 2.12-85.593.34-127.248-5.28-142.435-19.21-277.737-62.105-432.009-76.904-257.493-25.47-499.757-110.644-751.811-144.957" stroke="#64C5FC" stroke-opacity=".28" stroke-linecap="round" stroke-linejoin="round"/><path d="M2524.92 1240.45c-227.94-229.2-597.63-349.081-949.85-312.147a1339.743 1339.743 0 00-86.03 11.751c-195 33.137-358.69 122.106-541.354 126.586-44.947 1.1-87.359-3.35-128.358-12.27-141.066-30.69-264.597-94.989-425.446-99.213-267.125-7.015-501.947-121.365-766.623-159.818" stroke="#64C5FC" stroke-opacity=".28" stroke-linecap="round" stroke-linejoin="round"/><path d="M2576.71 1220.65c-237.45-233.037-622.41-350.633-986.04-307.225-29.63 3.499-59.12 7.931-88.37 13.371-204.24 38.013-363.37 144.704-549.276 144.954-46.511.06-89.131-7.06-129.467-19.26-139.719-42.24-251.385-128.158-418.89-121.526-276.65 10.957-504.138-132.081-781.436-174.685" stroke="#64C5FC" stroke-opacity=".28" stroke-linecap="round" stroke-linejoin="round"/><path d="M2628.5 1200.85c-246.96-236.879-647.18-352.191-1022.23-302.309-30.44 4.005-60.72 8.955-90.71 14.991-213.46 42.941-368.07 167.228-557.205 163.328-48.081-1-90.895-10.8-130.584-26.25-138.357-53.879-238.164-161.389-412.326-143.839-286.152 28.833-506.328-142.802-796.248-189.546" stroke="#64C5FC" stroke-opacity=".28" stroke-linecap="round" stroke-linejoin="round"/><path d="M2680.28 1181.05c-256.46-240.715-671.95-353.749-1058.42-297.392-31.24 4.511-62.3 9.995-93.05 16.61-222.67 47.925-372.77 189.702-565.131 181.702-49.651-2.07-92.653-14.56-131.693-33.25-136.967-65.567-224.952-194.661-405.764-166.142-295.661 46.631-508.517-153.524-811.059-204.413" stroke="#64C5FC" stroke-opacity=".28" stroke-linecap="round" stroke-linejoin="round"/><path d="M2732.07 1161.25c-265.96-244.557-696.72-355.308-1094.6-292.476-32.05 5.017-63.9 11.036-95.4 18.23-231.85 52.96-377.47 212.106-573.046 200.066-51.214-3.16-94.397-18.33-132.802-40.24-135.526-77.318-211.754-227.984-399.201-188.457-305.207 64.356-510.7-164.239-825.871-219.274" stroke="#64C5FC" stroke-opacity=".28" stroke-linecap="round" stroke-linejoin="round"/><path d="M2783.86 1141.45c-275.48-248.399-721.5-356.866-1130.79-287.566-32.85 5.524-65.48 12.083-97.74 19.851-241.02 58.033-382.14 234.465-580.967 218.435-52.785-4.26-96.126-22.11-133.919-47.23-134.028-89.103-198.578-261.334-392.638-210.766-314.796 82.024-512.898-174.96-840.69-234.14" stroke="#64C5FC" stroke-opacity=".28" stroke-linecap="round" stroke-linejoin="round"/><path d="M2835.64 1121.65c-284.98-252.241-746.26-358.418-1166.97-282.649-33.66 6.03-67.07 13.14-100.09 21.47-250.17 63.152-386.81 256.779-588.893 236.809-54.342-5.37-97.841-25.89-135.029-54.22-132.479-100.914-185.43-294.717-386.082-233.084C134.177 909.628-56.497 624.3-396.912 560.974" stroke="#64C5FC" stroke-opacity=".28" stroke-linecap="round" stroke-linejoin="round"/><path d="M2887.42 1101.85c-294.48-256.082-771.03-359.976-1203.15-277.733a1527.947 1527.947 0 00-102.43 23.091c-259.14 68.675-391.47 279.042-596.822 255.182-55.905-6.5-99.541-29.69-136.138-61.22-130.872-112.726-172.462-328.383-379.519-255.387C135.042 902.597-47.903 589.38-400.946 521.914" stroke="#64C5FC" stroke-opacity=".28" stroke-linecap="round" stroke-linejoin="round"/><path d="M2939.22 1082.05c-303.99-259.924-795.81-361.534-1239.35-272.817a1553.78 1553.78 0 00-104.77 24.711c-268.32 73.682-396.05 301.036-604.743 273.546-57.44-7.7-101.162-33.51-137.255-68.2-128.999-124.689-159.307-361.671-372.956-277.706C136.223 896.19-39.308 554.466-404.973 482.848" stroke="#64C5FC" stroke-opacity=".28" stroke-linecap="round" stroke-linejoin="round"/><path d="M2991 1062.25c-338.35-284.68-902.21-377.813-1382.64-241.57-277.5 78.694-400.72 323.48-612.672 291.91-271.117-40.37-223.245-496.559-504.757-375.205C137.405 889.777-30.713 519.546-409 443.788" stroke="#64C5FC" stroke-opacity=".28" stroke-linecap="round" stroke-linejoin="round"/><path d="M2989.66 989.531c-342.2-264.999-899.85-352.71-1361.64-209.857-31.72 9.838-61.24 22.067-89.28 35.561-200.64 96.542-326.04 271.145-515.13 247.125-266.109-33.8-243.48-449.929-514.366-347.61-69.672 26.32-131.895 31.59-189.306 23.76C99.071 708.377-84.875 470.901-371.769 418.785" stroke="#64C5FC" stroke-opacity=".28" stroke-width=".91" stroke-linecap="round" stroke-linejoin="round"/><path d="M2988.32 916.811c-346.04-245.317-897.49-327.6-1340.63-178.143-30.49 10.333-58.77 23.09-85.86 36.815-186.05 94.275-318.83 256.767-510.28 236.647-261.003-27.425-263.884-403.332-523.979-320.009-67.337 21.572-127.334 22.82-182.209 12.549C138.154 665.88-61.922 437.691-334.53 393.776" stroke="#64C5FC" stroke-opacity=".28" stroke-width=".82" stroke-linecap="round" stroke-linejoin="round"/><path d="M2986.99 844.091c-349.89-225.641-895.13-302.495-1319.62-146.43-29.28 10.828-56.31 24.092-82.44 38.07-171.58 91.789-311.56 242.275-505.45 226.17C823.665 940.65 795 605.102 545.892 669.486c-65.054 16.813-122.731 14.107-175.106 1.338-193.426-47.16-409.748-266.338-668.07-302.056" stroke="#64C5FC" stroke-opacity=".28" stroke-width=".73" stroke-linecap="round" stroke-linejoin="round"/><path d="M2985.65 771.371c-353.73-205.959-892.77-277.391-1298.62-114.716-28.05 11.323-53.85 25.071-79.01 39.324-157.25 89.084-304.26 227.661-500.62 215.691-250.56-15.272-305.283-310.371-543.195-264.814-62.821 12.032-118.114 5.468-168.01-9.872-179.602-55.22-412.219-265.708-656.255-293.22" stroke="#64C5FC" stroke-opacity=".28" stroke-width=".64" stroke-linecap="round" stroke-linejoin="round"/><path d="M2984.31 698.657c-357.58-186.278-890.4-252.287-1277.61-83.003-26.83 11.818-51.41 26.016-75.59 40.579-143.07 86.141-296.91 212.906-495.78 205.206-245.264-9.495-326.297-264.122-552.805-237.218-60.645 7.206-113.488-3.082-160.914-21.082-165.805-62.938-414.69-265.073-644.432-284.383" stroke="#64C5FC" stroke-opacity=".28" stroke-width=".55" stroke-linecap="round" stroke-linejoin="round"/><path d="M2982.97 625.937c-361.41-166.601-888.03-227.183-1256.59-51.289-25.61 12.319-49 26.938-72.18 41.833-129.07 82.963-289.55 198-490.93 194.726-239.963-3.903-347.486-218.126-562.425-209.615-58.519 2.317-108.899-11.537-153.81-32.293-152.131-70.302-417.16-264.437-632.618-275.547" stroke="#64C5FC" stroke-opacity=".28" stroke-width=".45" stroke-linecap="round" stroke-linejoin="round"/><path d="M2981.63 553.217c-365.26-146.919-885.67-202.072-1235.59-19.575-24.38 12.814-46.61 27.816-68.75 43.088C1562 656.273 1395.1 759.671 1191.2 760.976c-234.646 1.502-368.752-172.445-572.034-182.019-56.409-2.655-104.375-19.896-146.714-43.504C333.756 458.115 52.82 271.652-148.351 268.744" stroke="#64C5FC" stroke-opacity=".28" stroke-width=".36" stroke-linecap="round" stroke-linejoin="round"/><path d="M2980.29 480.497c-369.1-127.238-883.31-176.968-1214.58 12.139-23.16 13.308-44.28 28.648-65.33 44.342-101.78 75.898-274.84 167.709-481.26 173.767-229.354 6.728-389.958-127.125-581.648-154.417-54.291-7.729-99.959-28.17-139.611-54.715C372.255 417.519 75.758 238.442-111.12 243.735" stroke="#64C5FC" stroke-opacity=".28" stroke-width=".27" stroke-linecap="round" stroke-linejoin="round"/><path d="M2978.96 407.777c-372.95-107.556-880.95-151.864-1193.57 43.852-21.95 13.804-42.03 29.43-61.91 45.597-88.6 72.045-267.54 152.302-476.43 163.282-224.1 11.785-410.929-82.147-591.258-126.821-52.101-12.904-95.694-36.366-132.514-65.925C410.344 377.098 98.711 205.226-73.881 218.726" stroke="#64C5FC" stroke-opacity=".28" stroke-width=".18" stroke-linecap="round" stroke-linejoin="round"/><path d="M2977.62 335.057c-376.79-87.879-878.58-126.759-1172.57 75.566-20.72 14.299-39.88 30.156-58.48 46.851-75.77 68.012-260.3 136.704-471.59 152.803-218.91 16.684-431.489-37.429-600.867-99.219-49.789-18.164-91.595-44.522-125.412-77.136-100.751-97.161-427.045-261.9-585.35-240.204" stroke="#64C5FC" stroke-opacity=".28" stroke-width=".09" stroke-linecap="round" stroke-linejoin="round"/></g><defs><linearGradient id="paint0_linear_110_154" x1="1555" y1="39.5" x2="1555" y2="990" gradientUnits="userSpaceOnUse"><stop stop-color="#62C5FC" stop-opacity="0"/><stop offset=".99" stop-color="#64C5FC" stop-opacity=".4"/></linearGradient><clipPath id="clip0_110_154"><path fill="#fff" d="M0 0h2412v989H0z"/></clipPath></defs></svg>